# xmcd CD database file
#
# Track frame offsets:
#	150
#	14870
#	21779
#	39876
#	57756
#	74683
#	99661
#	112921
#	127182
#	145360
#	172078
#	194944
#
# Disc length: 2661 seconds
#
# Revision: 0
# Processed by: cddbd v1.5PL3 Copyright (c) Steve Scherf et al.
# Submitted via: CDex 1.51
#
DISCID=ba0a630c
DTITLE=Denise M`baye - Denise M`baye
DYEAR=2001
DGENRE=Jazz
TTITLE0=low jazz
TTITLE1=l.j. outro
TTITLE2=gumbeating
TTITLE3=Victime et Vicieux
TTITLE4=this World
TTITLE5=Welche Kraft
TTITLE6=never gonna fly
TTITLE7=Wir sind da
TTITLE8=I`histoire rose
TTITLE9=kinderlied
TTITLE10=sorry
TTITLE11=outro
EXTD=YEAR: 2001
EXTT0=
EXTT1=
EXTT2=
EXTT3=
EXTT4=
EXTT5=
EXTT6=
EXTT7=
EXTT8=
EXTT9=
EXTT10=
EXTT11=
PLAYORDER=
